<?xml version="1.0" encoding="UTF-8" standalone="no"?>
<!DOCTYPE svg PUBLIC "-//W3C//DTD SVG 1.1//EN" "http://www.w3.org/Graphics/SVG/1.1/DTD/svg11.dtd">
<svg width="100%" height="100%" viewBox="0 0 2084 2084" version="1.1" xmlns="http://www.w3.org/2000/svg" xmlns:xlink="http://www.w3.org/1999/xlink" xml:space="preserve" xmlns:serif="http://www.serif.com/" style="fill-rule:evenodd;clip-rule:evenodd;stroke-linejoin:round;stroke-miterlimit:2;">
    <g transform="matrix(8.08158,0,0,8.08158,-979.268,-581.791)">
        <g>
            <path d="M307.256,194.253L307.256,150.374L233.986,96.906L233.986,192.933L221.481,202.058L221.481,150.402L138.47,210.978L138.47,304.944L149.723,304.944L149.723,216.696L210.228,172.545L210.228,210.27L174.349,236.452L174.349,304.944L221.481,304.944L221.481,230.067L210.228,238.279L210.228,293.691L185.603,293.691L185.603,242.171L245.239,198.652L245.239,119.049L296.003,156.092L296.003,186.042L261.127,160.591L261.127,304.944L272.38,304.944L272.38,182.734L350.276,239.579L350.276,293.691L307.256,293.691L307.256,222.263L296.003,214.051L296.003,304.944L361.53,304.944L361.53,233.859L307.256,194.253ZM233.986,220.943L245.239,212.731L245.239,304.944L233.986,304.944L233.986,220.943Z" style="fill:rgb(119,101,82);fill-rule:nonzero;"/>
        </g>
    </g>
</svg>
