<?xml version="1.0" encoding="UTF-8" standalone="no"?>
<!DOCTYPE svg PUBLIC "-//W3C//DTD SVG 1.1//EN" "http://www.w3.org/Graphics/SVG/1.1/DTD/svg11.dtd">
<svg width="100%" height="100%" viewBox="0 0 330 44" version="1.1" xmlns="http://www.w3.org/2000/svg" xmlns:xlink="http://www.w3.org/1999/xlink" xml:space="preserve" xmlns:serif="http://www.serif.com/" style="fill-rule:evenodd;clip-rule:evenodd;stroke-linejoin:round;stroke-miterlimit:2;">
    <g transform="matrix(1,0,0,1,-100,-45)">
        <g transform="matrix(0.226435,0,0,0.226435,100.016,45.4988)">
            <path d="M408.68,42.14L458.71,185.09L458.88,185.57L475.87,185.57L425.86,42.14L408.68,42.14ZM479.55,183.67L478.88,185.57L495.88,185.57L545.89,42.14L528.9,42.14L479.56,183.67L479.55,183.67ZM629.8,77.44C606.16,77.44 589.39,90.34 587.08,110.31L586.9,111.91L602.98,111.91L603.11,110.62C604.66,95.4 618.46,90 629.8,90C649.62,90 656.68,104.38 656.68,117.84L656.68,119.07L629.25,122.04C613.43,123.92 583.98,127.41 583.98,153.7C583.98,173.09 599.68,187.71 620.5,187.71C642.5,187.71 652.77,173.64 656.68,166.11L656.68,185.58L672.34,185.58L672.34,116.87C672.34,98.68 661.2,77.44 629.81,77.44L629.8,77.44ZM656.68,145.34C656.68,161.92 641.97,175.93 624.57,175.93C612.75,175.93 600.02,168.98 600.02,153.71C600.02,138.44 615.44,135.73 635.59,133.42L656.68,131.07L656.68,145.34ZM550.76,185.58L566.81,185.58L566.81,42.14L550.76,42.14L550.76,185.58ZM161.29,0L119.15,0L0,143.43L0,185.57L42.14,185.57L161.29,42.14L161.29,0ZM619.98,42.14L603.35,42.14L603.35,66.72L619.98,66.72L619.98,42.14ZM294.42,0L252.28,0L133.12,143.43L133.12,185.57L175.26,185.57L294.42,42.14L294.42,0ZM266.25,143.43L266.25,185.57L322.58,185.57L322.58,143.43L294.42,109.48L266.25,143.43ZM387.75,185.57L403.99,185.57L403.99,42.14L387.75,42.14L387.75,185.57ZM656.24,42.14L639.61,42.14L639.61,66.72L656.24,66.72L656.24,42.14ZM1251.68,124.77L1239.67,122.25C1224.48,119.01 1216.76,115.67 1216.76,106.4C1216.76,95.63 1229.01,89.99 1241.12,89.99C1251.62,89.99 1263.41,95.22 1266.09,106.91L1266.34,108.02L1282.43,108.02L1282.07,106.29C1278.38,88.76 1262.31,77.43 1241.12,77.43C1218.31,77.43 1201.11,90.38 1201.11,107.56C1201.11,126.68 1219.35,132.79 1233.07,135.72L1245.08,138.24C1262.86,142.04 1268.57,146.5 1268.57,156.62C1268.57,165.85 1260.44,175.16 1242.28,175.16C1235.21,175.16 1218.35,173.08 1214.41,153.81L1214.18,152.67L1198.15,152.67L1198.42,154.33C1201.72,174.93 1218.53,187.72 1242.29,187.72C1266.05,187.72 1284.24,174.37 1284.24,155.27C1284.24,138.67 1274.51,129.56 1251.69,124.79L1251.68,124.77ZM1342.44,77.43C1312.82,77.43 1292.93,99.59 1292.93,132.57C1292.93,165.55 1313.06,187.71 1343.03,187.71C1367.01,187.71 1383.48,175.84 1389.39,154.28L1389.88,152.47L1373.77,152.47L1373.46,153.47C1368.93,167.86 1358.69,175.15 1343.03,175.15C1323.46,175.15 1310.42,160.67 1308.87,137.3L1391.07,137.3L1391.19,136C1391.24,135.48 1391.28,135.03 1391.33,134.61L1391.36,134.34C1391.49,133.11 1391.59,132.13 1391.59,130.83C1391.59,99.39 1371.39,77.44 1342.46,77.44L1342.44,77.43ZM1309.13,124.54C1311.61,102.88 1324.01,89.98 1342.44,89.98C1360.87,89.98 1373.72,104.15 1375.42,124.54L1309.13,124.54ZM1170.38,142.44C1170.38,162.61 1160.23,175.15 1143.89,175.15C1127.55,175.15 1117.21,163.22 1117.21,143.23L1117.21,79.56L1101.55,79.56L1101.55,145.36C1101.55,170.29 1117.05,187.7 1139.24,187.7C1147.62,187.7 1162.36,184.92 1170.38,167.05L1170.38,185.56L1186.04,185.56L1186.04,79.55L1170.38,79.55L1170.38,142.44ZM693.26,185.57L708.92,185.57L708.92,42.14L693.26,42.14L693.26,185.57ZM1427.75,157.98L1427.75,92.32L1453.54,92.32L1453.54,79.57L1427.75,79.57L1427.75,55.14L1412.09,55.14L1412.09,79.57L1391.73,79.57L1391.73,92.32L1412.09,92.32L1412.09,157.97C1412.09,175.51 1423,185.58 1442.02,185.58L1456.44,185.58L1456.44,172.83L1443.18,172.83C1432.22,172.83 1427.75,168.53 1427.75,157.98ZM794.47,185.57L810.13,185.57L810.13,42.14L794.47,42.14L794.47,185.57ZM783.99,79.56L763.48,79.56L713.38,126.49L765.44,185.13L765.86,185.57L785.56,185.57L733.44,126.68L783.99,79.57L783.99,79.56ZM871.31,77.43C847.67,77.43 830.9,90.33 828.59,110.3L828.41,111.9L844.49,111.9L844.62,110.61C846.17,95.39 859.97,89.99 871.31,89.99C891.13,89.99 898.18,104.37 898.18,117.83L898.18,119.06L870.75,122.03C854.93,123.91 825.47,127.41 825.47,153.69C825.47,173.08 841.17,187.7 862,187.7C883.99,187.7 894.26,173.63 898.18,166.1L898.18,185.56L913.84,185.56L913.84,116.85C913.84,98.66 902.7,77.42 871.31,77.42L871.31,77.43ZM898.18,145.33C898.18,161.91 883.48,175.92 866.07,175.92C854.25,175.92 841.52,168.97 841.52,153.7C841.52,138.43 856.94,135.72 877.09,133.41L898.18,131.06L898.18,145.33ZM949.32,98.77L949.32,79.56L933.66,79.56L933.66,185.57L949.32,185.57L949.32,121.32C949.32,102.19 959.32,92.9 979.88,92.9L985,92.9L985,77.43L983.57,77.43C962.75,77.43 953.07,91.21 949.33,98.77L949.32,98.77ZM1045.6,77.43C1035.37,77.43 1021.35,82.91 1013.88,98.09L1013.88,42.14L998.22,42.14L998.22,185.57L1013.88,185.57L1013.88,122.1C1013.88,101.99 1024,89.99 1040.95,89.99C1057.9,89.99 1068.02,101.92 1068.02,121.91L1068.02,185.58L1083.68,185.58L1083.68,119.78C1083.68,94.45 1068.38,77.44 1045.61,77.44L1045.6,77.43Z" style="fill:rgb(119,101,82);fill-rule:nonzero;"/>
        </g>
    </g>
</svg>
