<?xml version="1.0" encoding="UTF-8"?><svg id="Lager_1" xmlns="http://www.w3.org/2000/svg" viewBox="0 0 1456.45 187.71"><defs><style>.cls-1{stroke-width:0px;}</style></defs><path class="cls-1" d="m408.68,42.14l50.03,142.95.17.48h16.99l-50.01-143.43h-17.18Zm70.87,141.53l-.67,1.9h17l50.01-143.43h-16.99l-49.34,141.53Zm150.25-106.23c-23.64,0-40.41,12.9-42.72,32.87l-.18,1.6h16.08l.13-1.29c1.55-15.22,15.35-20.62,26.69-20.62,19.82,0,26.88,14.38,26.88,27.84v1.23l-27.43,2.97c-15.82,1.88-45.27,5.37-45.27,31.66,0,19.39,15.7,34.01,36.52,34.01,22,0,32.27-14.07,36.18-21.6v19.47h15.66v-68.71c0-18.19-11.14-39.43-42.53-39.43Zm26.88,67.9c0,16.58-14.71,30.59-32.11,30.59-11.82,0-24.55-6.95-24.55-22.22s15.42-17.98,35.57-20.29l21.09-2.35v14.27Zm-105.92,40.24h16.05V42.14h-16.05v143.43ZM161.29,0h-42.14L0,143.43v42.14h42.14L161.29,42.14V0Zm458.69,42.14h-16.63v24.58h16.63v-24.58ZM294.42,0h-42.14l-119.16,143.43v42.14h42.14l119.16-143.43V0Zm-28.17,143.43v42.14h56.33v-42.14l-28.16-33.95-28.17,33.95Zm121.5,42.14h16.24V42.14h-16.24v143.43ZM656.24,42.14h-16.63v24.58h16.63v-24.58Zm595.44,82.63l-12.01-2.52c-15.19-3.24-22.91-6.58-22.91-15.85,0-10.77,12.25-16.41,24.36-16.41,10.5,0,22.29,5.23,24.97,16.92l.25,1.11h16.09l-.36-1.73c-3.69-17.53-19.76-28.86-40.95-28.86-22.81,0-40.01,12.95-40.01,30.13,0,19.12,18.24,25.23,31.96,28.16l12.01,2.52c17.78,3.8,23.49,8.26,23.49,18.38,0,9.23-8.13,18.54-26.29,18.54-7.07,0-23.93-2.08-27.87-21.35l-.23-1.14h-16.03l.27,1.66c3.3,20.6,20.11,33.39,43.87,33.39s41.95-13.35,41.95-32.45c0-16.6-9.73-25.71-32.55-30.48Zm90.76-47.34c-29.62,0-49.51,22.16-49.51,55.14s20.13,55.14,50.1,55.14c23.98,0,40.45-11.87,46.36-33.43l.49-1.81h-16.11l-.31,1c-4.53,14.39-14.77,21.68-30.43,21.68-19.57,0-32.61-14.48-34.16-37.85h82.2l.12-1.3c.05-.52.09-.97.14-1.39l.03-.27c.13-1.23.23-2.21.23-3.51,0-31.44-20.2-53.39-49.13-53.39Zm-33.31,47.11c2.48-21.66,14.88-34.56,33.31-34.56s31.28,14.17,32.98,34.56h-66.29Zm-138.75,17.9c0,20.17-10.15,32.71-26.49,32.71s-26.68-11.93-26.68-31.92v-63.67h-15.66v65.8c0,24.93,15.5,42.34,37.69,42.34,8.38,0,23.12-2.78,31.14-20.65v18.51h15.66v-106.01h-15.66v62.88Zm-477.12,43.13h15.66V42.14h-15.66v143.43Zm734.49-27.6v-65.65h25.79v-12.75h-25.79v-24.43h-15.66v24.43h-20.36v12.75h20.36v65.65c0,17.54,10.91,27.61,29.93,27.61h14.42v-12.75h-13.26c-10.96,0-15.43-4.3-15.43-14.85Zm-633.28,27.6h15.66V42.14h-15.66v143.43Zm-10.48-106.01h-20.51l-50.1,46.93,52.06,58.64.42.44h19.7l-52.12-58.89,50.55-47.11Zm87.32-2.13c-23.64,0-40.41,12.9-42.72,32.87l-.18,1.6h16.08l.13-1.29c1.55-15.22,15.35-20.62,26.69-20.62,19.82,0,26.87,14.38,26.87,27.84v1.23l-27.43,2.97c-15.82,1.88-45.28,5.38-45.28,31.66,0,19.39,15.7,34.01,36.53,34.01,21.99,0,32.26-14.07,36.18-21.6v19.46h15.66v-68.71c0-18.19-11.14-39.43-42.53-39.43Zm26.87,67.9c0,16.58-14.7,30.59-32.11,30.59-11.82,0-24.55-6.95-24.55-22.22s15.42-17.98,35.57-20.29l21.09-2.35v14.27Zm51.14-46.56v-19.21h-15.66v106.01s15.66,0,15.66,0v-64.25c0-19.13,10-28.42,30.56-28.42h5.12v-15.47h-1.43c-20.82,0-30.5,13.78-34.24,21.34Zm96.28-21.34c-10.23,0-24.25,5.48-31.72,20.66v-55.95h-15.66v143.43h15.66v-63.47c0-20.11,10.12-32.11,27.07-32.11s27.07,11.93,27.07,31.92v63.67h15.66v-65.8c0-25.33-15.3-42.34-38.07-42.34Z"/></svg>