<?xml version="1.0" encoding="UTF-8" standalone="no"?>
<!DOCTYPE svg PUBLIC "-//W3C//DTD SVG 1.1//EN" "http://www.w3.org/Graphics/SVG/1.1/DTD/svg11.dtd">
<svg width="100%" height="100%" viewBox="0 0 2084 2084" version="1.1" xmlns="http://www.w3.org/2000/svg" xmlns:xlink="http://www.w3.org/1999/xlink" xml:space="preserve" xmlns:serif="http://www.serif.com/" style="fill-rule:evenodd;clip-rule:evenodd;stroke-linejoin:round;stroke-miterlimit:2;">
    <g transform="matrix(5.99713,0,0,5.99713,-458.156,-451.513)">
        <g>
            <path d="M139.034,378.056L139.034,386.446L126.84,386.446L126.84,378.056L125.511,378.056L125.511,396.294L126.84,396.294L126.84,387.618L139.034,387.618L139.034,396.294L140.362,396.294L140.362,378.056L139.034,378.056Z" style="fill:rgb(119,101,82);fill-rule:nonzero;"/>
            <path d="M155.109,396.425C160.529,396.425 164.593,392.491 164.593,387.175C164.593,381.86 160.529,377.926 155.109,377.926C149.664,377.926 145.625,381.886 145.625,387.175C145.625,392.465 149.664,396.425 155.109,396.425ZM155.109,395.2C150.446,395.2 146.954,391.787 146.954,387.175C146.954,382.564 150.446,379.151 155.109,379.151C159.747,379.151 163.238,382.564 163.238,387.175C163.238,391.787 159.747,395.2 155.109,395.2Z" style="fill:rgb(119,101,82);fill-rule:nonzero;"/>
            <path d="M188.407,396.295L188.381,378.056L187.287,378.056L179.131,392.152L170.976,378.056L169.856,378.056L169.856,396.295L171.159,396.295L171.159,380.74L178.793,393.871L179.444,393.871L187.078,380.688L187.104,396.295L188.407,396.295Z" style="fill:rgb(119,101,82);fill-rule:nonzero;"/>
            <path d="M196.744,395.096L196.744,387.618L206.463,387.618L206.463,386.446L196.744,386.446L196.744,379.255L207.609,379.255L207.609,378.056L195.416,378.056L195.416,396.295L208,396.295L208,395.096L196.744,395.096Z" style="fill:rgb(119,101,82);fill-rule:nonzero;"/>
            <path d="M225.638,396.425C230.146,396.425 232.204,394.184 232.204,391.605C232.204,384.987 220.818,388.218 220.818,382.746C220.818,380.74 222.408,379.099 225.951,379.099C227.592,379.099 229.442,379.594 230.953,380.636L231.449,379.568C230.042,378.551 227.957,377.926 225.951,377.926C221.47,377.926 219.489,380.193 219.489,382.772C219.489,389.494 230.875,386.212 230.875,391.683C230.875,393.663 229.26,395.252 225.612,395.252C223.163,395.252 220.844,394.262 219.594,392.96L218.994,393.95C220.323,395.409 222.929,396.425 225.638,396.425Z" style="fill:rgb(119,101,82);fill-rule:nonzero;"/>
            <path d="M245.101,396.425C250.52,396.425 254.585,392.491 254.585,387.176C254.585,381.86 250.52,377.926 245.101,377.926C239.656,377.926 235.617,381.886 235.617,387.176C235.617,392.465 239.656,396.425 245.101,396.425ZM245.101,395.2C240.437,395.2 236.946,391.787 236.946,387.176C236.946,382.564 240.437,379.151 245.101,379.151C249.739,379.151 253.23,382.564 253.23,387.176C253.23,391.787 249.739,395.2 245.101,395.2Z" style="fill:rgb(119,101,82);fill-rule:nonzero;"/>
            <path d="M259.848,396.295L271.677,396.295L271.677,395.096L261.177,395.096L261.177,378.056L259.848,378.056L259.848,396.295Z" style="fill:rgb(119,101,82);fill-rule:nonzero;"/>
            <path d="M282.515,396.425C287.049,396.425 289.836,393.767 289.836,388.557L289.836,378.057L288.508,378.057L288.508,388.504C288.508,393.064 286.345,395.2 282.541,395.2C278.737,395.2 276.549,393.064 276.549,388.504L276.549,378.057L275.22,378.057L275.22,388.557C275.22,393.767 277.982,396.425 282.515,396.425Z" style="fill:rgb(119,101,82);fill-rule:nonzero;"/>
            <path d="M299.816,396.295L301.144,396.295L301.144,379.255L307.71,379.255L307.71,378.057L293.25,378.057L293.25,379.255L299.816,379.255L299.816,396.295Z" style="fill:rgb(119,101,82);fill-rule:nonzero;"/>
            <rect x="311.644" y="378.057" width="1.329" height="18.238" style="fill:rgb(119,101,82);fill-rule:nonzero;"/>
            <path d="M327.72,396.425C333.139,396.425 337.204,392.491 337.204,387.176C337.204,381.861 333.139,377.926 327.72,377.926C322.274,377.926 318.236,381.887 318.236,387.176C318.236,392.465 322.274,396.425 327.72,396.425ZM327.72,395.201C323.056,395.201 319.565,391.787 319.565,387.176C319.565,382.564 323.056,379.151 327.72,379.151C332.357,379.151 335.849,382.564 335.849,387.176C335.849,391.787 332.357,395.201 327.72,395.201Z" style="fill:rgb(119,101,82);fill-rule:nonzero;"/>
            <path d="M355.989,378.057L355.989,393.898L343.587,378.057L342.466,378.057L342.466,396.295L343.795,396.295L343.795,380.454L356.223,396.295L357.318,396.295L357.318,378.057L355.989,378.057Z" style="fill:rgb(119,101,82);fill-rule:nonzero;"/>
            <path d="M369.12,396.425C373.628,396.425 375.686,394.184 375.686,391.605C375.686,384.987 364.3,388.218 364.3,382.747C364.3,380.74 365.89,379.099 369.433,379.099C371.074,379.099 372.924,379.594 374.436,380.636L374.931,379.568C373.524,378.552 371.439,377.926 369.433,377.926C364.952,377.926 362.971,380.193 362.971,382.773C362.971,389.495 374.357,386.212 374.357,391.683C374.357,393.663 372.742,395.253 369.094,395.253C366.645,395.253 364.326,394.263 363.076,392.96L362.476,393.95C363.805,395.409 366.411,396.425 369.12,396.425Z" style="fill:rgb(119,101,82);fill-rule:nonzero;"/>
        </g>
        <g>
            <path d="M107.182,362.867L99.489,351.844C103.948,349.933 106.545,346.16 106.545,341.016C106.545,333.324 100.812,328.571 91.65,328.571L76.805,328.571L76.805,362.867L84.742,362.867L84.742,353.314L92.042,353.314L98.657,362.867L107.182,362.867ZM98.51,341.016C98.51,344.739 96.06,346.993 91.209,346.993L84.742,346.993L84.742,335.038L91.209,335.038C96.06,335.038 98.51,337.243 98.51,341.016Z" style="fill:rgb(119,101,82);fill-rule:nonzero;"/>
            <path d="M121.928,356.498L121.928,348.561L137.852,348.561L137.852,342.388L121.928,342.388L121.928,334.94L139.959,334.94L139.959,328.571L114.04,328.571L114.04,362.867L140.595,362.867L140.595,356.498L121.928,356.498Z" style="fill:rgb(119,101,82);fill-rule:nonzero;"/>
            <path d="M173.764,362.867L182.093,362.867L166.758,328.571L158.919,328.571L143.632,362.867L151.765,362.867L154.803,355.518L170.726,355.518L173.764,362.867ZM157.351,349.492L162.789,336.361L168.228,349.492L157.351,349.492Z" style="fill:rgb(119,101,82);fill-rule:nonzero;"/>
            <path d="M186.895,362.867L212.029,362.867L212.029,356.4L194.832,356.4L194.832,328.571L186.895,328.571L186.895,362.867Z" style="fill:rgb(119,101,82);fill-rule:nonzero;"/>
            <path d="M240.69,356.498L240.69,348.561L256.613,348.561L256.613,342.388L240.69,342.388L240.69,334.94L258.72,334.94L258.72,328.571L232.802,328.571L232.802,362.867L259.357,362.867L259.357,356.498L240.69,356.498Z" style="fill:rgb(119,101,82);fill-rule:nonzero;"/>
            <path d="M278.17,363.455C287.969,363.455 292.722,358.556 292.722,352.824C292.722,340.232 272.781,344.592 272.781,338.272C272.781,336.116 274.594,334.353 279.297,334.353C282.335,334.353 285.618,335.234 288.802,337.047L291.252,331.021C288.067,329.012 283.658,327.983 279.346,327.983C269.596,327.983 264.893,332.834 264.893,338.664C264.893,351.403 284.834,346.993 284.834,353.411C284.834,355.518 282.923,357.086 278.219,357.086C274.104,357.086 269.792,355.616 266.902,353.509L264.207,359.487C267.245,361.839 272.732,363.455 278.17,363.455Z" style="fill:rgb(119,101,82);fill-rule:nonzero;"/>
            <path d="M305.999,362.867L313.936,362.867L313.936,335.038L324.911,335.038L324.911,328.571L295.024,328.571L295.024,335.038L305.999,335.038L305.999,362.867Z" style="fill:rgb(119,101,82);fill-rule:nonzero;"/>
            <path d="M354.308,362.867L362.637,362.867L347.302,328.571L339.463,328.571L324.176,362.867L332.31,362.867L335.347,355.518L351.271,355.518L354.308,362.867ZM337.895,349.492L343.333,336.361L348.772,349.492L337.895,349.492Z" style="fill:rgb(119,101,82);fill-rule:nonzero;"/>
            <path d="M372.829,362.867L380.766,362.867L380.766,335.038L391.741,335.038L391.741,328.571L361.854,328.571L361.854,335.038L372.829,335.038L372.829,362.867Z" style="fill:rgb(119,101,82);fill-rule:nonzero;"/>
            <path d="M405.117,356.498L405.117,348.561L421.04,348.561L421.04,342.388L405.117,342.388L405.117,334.94L423.147,334.94L423.147,328.571L397.228,328.571L397.228,362.867L423.784,362.867L423.784,356.498L405.117,356.498Z" style="fill:rgb(119,101,82);fill-rule:nonzero;"/>
            <path d="M307.256,194.253L307.256,150.374L233.986,96.906L233.986,192.933L221.481,202.058L221.481,150.402L138.47,210.978L138.47,304.944L149.723,304.944L149.723,216.696L210.228,172.545L210.228,210.27L174.349,236.452L174.349,304.944L221.481,304.944L221.481,230.067L210.228,238.279L210.228,293.691L185.603,293.691L185.603,242.171L245.239,198.652L245.239,119.049L296.003,156.092L296.003,186.042L261.127,160.591L261.127,304.944L272.38,304.944L272.38,182.734L350.276,239.579L350.276,293.691L307.256,293.691L307.256,222.263L296.003,214.051L296.003,304.944L361.53,304.944L361.53,233.859L307.256,194.253ZM233.986,220.943L245.239,212.731L245.239,304.944L233.986,304.944L233.986,220.943Z" style="fill:rgb(119,101,82);fill-rule:nonzero;"/>
        </g>
    </g>
</svg>
